solid RFIDHolder
facet normal 0.0 0.0 -1.0
  outer loop
    vertex 94.81708110548912 71.12557978770671 0.0
    vertex 34.81708110548911 29.12557978770671 0.0
    vertex 34.81708110548911 71.12557978770671 0.0
  endloop
endfacet
facet normal 0.0 0.0 -1.0
  outer loop
    vertex 34.81708110548911 29.12557978770671 0.0
    vertex 94.81708110548912 71.12557978770671 0.0
    vertex 94.81708110548912 29.12557978770671 0.0
  endloop
endfacet
facet normal -0.0 -0.0 1.0
  outer loop
    vertex 92.81708110548911 31.125579787706712 1.9999999999999998
    vertex 36.81708110548911 36.12557978770671 1.9999999999999998
    vertex 36.81708110548911 31.125579787706712 1.9999999999999998
  endloop
endfacet
facet normal -0.0 -0.0 1.0
  outer loop
    vertex 36.81708110548911 36.12557978770671 1.9999999999999998
    vertex 92.81708110548911 31.125579787706712 1.9999999999999998
    vertex 36.81708110548911 50.12557978770671 1.9999999999999998
  endloop
endfacet
facet normal -0.0 -0.0 1.0
  outer loop
    vertex 36.81708110548911 50.12557978770671 1.9999999999999998
    vertex 92.81708110548911 31.125579787706712 1.9999999999999998
    vertex 36.81708110548911 71.12557978770671 1.9999999999999998
  endloop
endfacet
facet normal -0.0 -0.0 1.0
  outer loop
    vertex 36.81708110548911 71.12557978770671 1.9999999999999998
    vertex 92.81708110548911 31.125579787706712 1.9999999999999998
    vertex 92.81708110548911 71.12557978770671 1.9999999999999998
  endloop
endfacet
facet normal -0.0 -1.0 -0.0
  outer loop
    vertex 94.81708110548912 29.12557978770671 7.999999999999999
    vertex 34.81708110548911 29.12557978770671 0.0
    vertex 94.81708110548912 29.12557978770671 0.0
  endloop
endfacet
facet normal -0.0 -1.0 -0.0
  outer loop
    vertex 34.81708110548911 29.12557978770671 0.0
    vertex 94.81708110548912 29.12557978770671 7.999999999999999
    vertex 34.81708110548911 29.12557978770671 7.999999999999999
  endloop
endfacet
facet normal -1.0 0.0 0.0
  outer loop
    vertex 34.81708110548911 71.12557978770671 7.999999999999999
    vertex 34.81708110548911 50.12557978770671 1.9999999999999998
    vertex 34.81708110548911 50.12557978770671 7.999999999999999
  endloop
endfacet
facet normal -1.0 0.0 0.0
  outer loop
    vertex 34.81708110548911 31.125579787706712 7.999999999999999
    vertex 34.81708110548911 29.12557978770671 0.0
    vertex 34.81708110548911 29.12557978770671 7.999999999999999
  endloop
endfacet
facet normal -1.0 0.0 0.0
  outer loop
    vertex 34.81708110548911 29.12557978770671 0.0
    vertex 34.81708110548911 31.125579787706712 7.999999999999999
    vertex 34.81708110548911 36.12557978770671 1.9999999999999998
  endloop
endfacet
facet normal -1.0 0.0 0.0
  outer loop
    vertex 34.81708110548911 29.12557978770671 0.0
    vertex 34.81708110548911 36.12557978770671 1.9999999999999998
    vertex 34.81708110548911 71.12557978770671 0.0
  endloop
endfacet
facet normal -1.0 0.0 0.0
  outer loop
    vertex 34.81708110548911 36.12557978770671 1.9999999999999998
    vertex 34.81708110548911 31.125579787706712 7.999999999999999
    vertex 34.81708110548911 36.12557978770671 7.999999999999999
  endloop
endfacet
facet normal -1.0 0.0 0.0
  outer loop
    vertex 34.81708110548911 71.12557978770671 0.0
    vertex 34.81708110548911 36.12557978770671 1.9999999999999998
    vertex 34.81708110548911 50.12557978770671 1.9999999999999998
  endloop
endfacet
facet normal -1.0 0.0 0.0
  outer loop
    vertex 34.81708110548911 71.12557978770671 0.0
    vertex 34.81708110548911 50.12557978770671 1.9999999999999998
    vertex 34.81708110548911 71.12557978770671 7.999999999999999
  endloop
endfacet
facet normal -0.0 1.0 0.0
  outer loop
    vertex 34.81708110548911 71.12557978770671 0.0
    vertex 36.81708110548911 71.12557978770671 1.9999999999999998
    vertex 94.81708110548912 71.12557978770671 0.0
  endloop
endfacet
facet normal -0.0 1.0 0.0
  outer loop
    vertex 36.81708110548911 71.12557978770671 1.9999999999999998
    vertex 34.81708110548911 71.12557978770671 0.0
    vertex 34.81708110548911 71.12557978770671 7.999999999999999
  endloop
endfacet
facet normal -0.0 1.0 0.0
  outer loop
    vertex 36.81708110548911 71.12557978770671 1.9999999999999998
    vertex 34.81708110548911 71.12557978770671 7.999999999999999
    vertex 36.81708110548911 71.12557978770671 7.999999999999999
  endloop
endfacet
facet normal -0.0 1.0 0.0
  outer loop
    vertex 94.81708110548912 71.12557978770671 0.0
    vertex 92.81708110548911 71.12557978770671 1.9999999999999998
    vertex 94.81708110548912 71.12557978770671 7.999999999999999
  endloop
endfacet
facet normal -0.0 1.0 0.0
  outer loop
    vertex 92.81708110548911 71.12557978770671 1.9999999999999998
    vertex 94.81708110548912 71.12557978770671 0.0
    vertex 36.81708110548911 71.12557978770671 1.9999999999999998
  endloop
endfacet
facet normal -0.0 1.0 0.0
  outer loop
    vertex 94.81708110548912 71.12557978770671 7.999999999999999
    vertex 92.81708110548911 71.12557978770671 1.9999999999999998
    vertex 92.81708110548911 71.12557978770671 7.999999999999999
  endloop
endfacet
facet normal 1.0 0.0 0.0
  outer loop
    vertex 94.81708110548912 71.12557978770671 0.0
    vertex 94.81708110548912 29.12557978770671 7.999999999999999
    vertex 94.81708110548912 29.12557978770671 0.0
  endloop
endfacet
facet normal 1.0 0.0 0.0
  outer loop
    vertex 94.81708110548912 29.12557978770671 7.999999999999999
    vertex 94.81708110548912 71.12557978770671 0.0
    vertex 94.81708110548912 71.12557978770671 7.999999999999999
  endloop
endfacet
facet normal -0.0 -0.0 1.0
  outer loop
    vertex 36.81708110548911 36.12557978770671 1.9999999999999998
    vertex 34.81708110548911 50.12557978770671 1.9999999999999998
    vertex 34.81708110548911 36.12557978770671 1.9999999999999998
  endloop
endfacet
facet normal -0.0 -0.0 1.0
  outer loop
    vertex 34.81708110548911 50.12557978770671 1.9999999999999998
    vertex 36.81708110548911 36.12557978770671 1.9999999999999998
    vertex 36.81708110548911 50.12557978770671 1.9999999999999998
  endloop
endfacet
facet normal -0.0 1.0 -0.0
  outer loop
    vertex 36.81708110548911 31.125579787706712 7.999999999999999
    vertex 92.81708110548911 31.125579787706712 1.9999999999999998
    vertex 36.81708110548911 31.125579787706712 1.9999999999999998
  endloop
endfacet
facet normal -0.0 1.0 -0.0
  outer loop
    vertex 92.81708110548911 31.125579787706712 1.9999999999999998
    vertex 36.81708110548911 31.125579787706712 7.999999999999999
    vertex 92.81708110548911 31.125579787706712 7.999999999999999
  endloop
endfacet
facet normal -1.0 -0.0 -0.0
  outer loop
    vertex 92.81708110548911 71.12557978770671 7.999999999999999
    vertex 92.81708110548911 31.125579787706712 1.9999999999999998
    vertex 92.81708110548911 31.125579787706712 7.999999999999999
  endloop
endfacet
facet normal -1.0 -0.0 -0.0
  outer loop
    vertex 92.81708110548911 31.125579787706712 1.9999999999999998
    vertex 92.81708110548911 71.12557978770671 7.999999999999999
    vertex 92.81708110548911 71.12557978770671 1.9999999999999998
  endloop
endfacet
facet normal 0.0 0.0 1.0
  outer loop
    vertex 36.81708110548911 50.12557978770671 7.999999999999999
    vertex 34.81708110548911 71.12557978770671 7.999999999999999
    vertex 34.81708110548911 50.12557978770671 7.999999999999999
  endloop
endfacet
facet normal 0.0 0.0 1.0
  outer loop
    vertex 34.81708110548911 71.12557978770671 7.999999999999999
    vertex 36.81708110548911 50.12557978770671 7.999999999999999
    vertex 36.81708110548911 71.12557978770671 7.999999999999999
  endloop
endfacet
facet normal 0.0 -1.0 0.0
  outer loop
    vertex 36.81708110548911 50.12557978770671 7.999999999999999
    vertex 34.81708110548911 50.12557978770671 1.9999999999999998
    vertex 36.81708110548911 50.12557978770671 1.9999999999999998
  endloop
endfacet
facet normal 0.0 -1.0 0.0
  outer loop
    vertex 34.81708110548911 50.12557978770671 1.9999999999999998
    vertex 36.81708110548911 50.12557978770671 7.999999999999999
    vertex 34.81708110548911 50.12557978770671 7.999999999999999
  endloop
endfacet
facet normal 1.0 -0.0 0.0
  outer loop
    vertex 36.81708110548911 71.12557978770671 1.9999999999999998
    vertex 36.81708110548911 50.12557978770671 7.999999999999999
    vertex 36.81708110548911 50.12557978770671 1.9999999999999998
  endloop
endfacet
facet normal 1.0 -0.0 0.0
  outer loop
    vertex 36.81708110548911 50.12557978770671 7.999999999999999
    vertex 36.81708110548911 71.12557978770671 1.9999999999999998
    vertex 36.81708110548911 71.12557978770671 7.999999999999999
  endloop
endfacet
facet normal -0.0 -0.0 1.0
  outer loop
    vertex 36.81708110548911 31.125579787706712 7.999999999999999
    vertex 34.81708110548911 36.12557978770671 7.999999999999999
    vertex 34.81708110548911 31.125579787706712 7.999999999999999
  endloop
endfacet
facet normal -0.0 -0.0 1.0
  outer loop
    vertex 34.81708110548911 36.12557978770671 7.999999999999999
    vertex 36.81708110548911 31.125579787706712 7.999999999999999
    vertex 36.81708110548911 36.12557978770671 7.999999999999999
  endloop
endfacet
facet normal 1.0 -0.0 -0.0
  outer loop
    vertex 36.81708110548911 36.12557978770671 1.9999999999999998
    vertex 36.81708110548911 31.125579787706712 7.999999999999999
    vertex 36.81708110548911 31.125579787706712 1.9999999999999998
  endloop
endfacet
facet normal 1.0 -0.0 -0.0
  outer loop
    vertex 36.81708110548911 31.125579787706712 7.999999999999999
    vertex 36.81708110548911 36.12557978770671 1.9999999999999998
    vertex 36.81708110548911 36.12557978770671 7.999999999999999
  endloop
endfacet
facet normal 0.0 1.0 0.0
  outer loop
    vertex 34.81708110548911 36.12557978770671 7.999999999999999
    vertex 36.81708110548911 36.12557978770671 1.9999999999999998
    vertex 34.81708110548911 36.12557978770671 1.9999999999999998
  endloop
endfacet
facet normal 0.0 1.0 0.0
  outer loop
    vertex 36.81708110548911 36.12557978770671 1.9999999999999998
    vertex 34.81708110548911 36.12557978770671 7.999999999999999
    vertex 36.81708110548911 36.12557978770671 7.999999999999999
  endloop
endfacet
facet normal -0.0 -0.0 1.0
  outer loop
    vertex 94.81708110548912 29.12557978770671 7.999999999999999
    vertex 34.81708110548911 31.125579787706712 7.999999999999999
    vertex 34.81708110548911 29.12557978770671 7.999999999999999
  endloop
endfacet
facet normal -0.0 -0.0 1.0
  outer loop
    vertex 34.81708110548911 31.125579787706712 7.999999999999999
    vertex 94.81708110548912 29.12557978770671 7.999999999999999
    vertex 36.81708110548911 31.125579787706712 7.999999999999999
  endloop
endfacet
facet normal -0.0 -0.0 1.0
  outer loop
    vertex 36.81708110548911 31.125579787706712 7.999999999999999
    vertex 94.81708110548912 29.12557978770671 7.999999999999999
    vertex 92.81708110548911 31.125579787706712 7.999999999999999
  endloop
endfacet
facet normal -0.0 -0.0 1.0
  outer loop
    vertex 92.81708110548911 31.125579787706712 7.999999999999999
    vertex 94.81708110548912 29.12557978770671 7.999999999999999
    vertex 92.81708110548911 71.12557978770671 7.999999999999999
  endloop
endfacet
facet normal -0.0 -0.0 1.0
  outer loop
    vertex 92.81708110548911 71.12557978770671 7.999999999999999
    vertex 94.81708110548912 29.12557978770671 7.999999999999999
    vertex 94.81708110548912 71.12557978770671 7.999999999999999
  endloop
endfacet
endsolid RFIDHolder
